<svg width="148" height="146" viewBox="0 0 148 146" fill="none" xmlns="http://www.w3.org/2000/svg">
<g clip-path="url(#clip0_96_141)">
<path d="M45.708 5.51721C54.4281 1.96536 63.9912 0 74 0C94.4271 0 112.939 8.14558 126.32 21.3111C133.137 28.0123 138.63 36.0276 142.387 44.9309C146.001 53.5027 148 62.9033 148 72.7419C148 92.8217 139.714 111.019 126.32 124.173C119.503 130.874 111.349 136.273 102.292 139.967C93.5719 143.519 84.0088 145.484 74 145.484C63.9912 145.484 54.4281 143.519 45.708 139.967C36.6387 136.273 28.4967 130.874 21.6797 124.173C14.8626 117.472 9.3584 109.468 5.61263 100.553C1.99935 91.9811 0 82.5806 0 72.7419C0 62.9033 1.99935 53.5027 5.61263 44.9309C9.3584 36.0158 14.8626 28.0123 21.6797 21.3111C28.4847 14.61 36.6387 9.1993 45.708 5.51721ZM60.2214 55.7996C57.2344 52.816 57.2705 48.0092 60.3177 45.0848C63.3529 42.1486 68.2428 42.1842 71.2178 45.1796L93.7044 67.6391C96.6553 70.599 96.6553 75.3229 93.7044 78.271L71.6514 100.304C68.6644 103.288 63.7865 103.323 60.7513 100.399C57.7161 97.4628 57.68 92.6678 60.655 89.6843L77.3965 72.955L60.2214 55.7996ZM51.6217 19.5944C44.4795 22.5069 38.0358 26.781 32.64 32.0851C27.2441 37.3892 22.8962 43.7233 19.9333 50.7441C17.0788 57.5045 15.513 64.9397 15.513 72.7419C15.513 80.5442 17.0908 87.9675 19.9333 94.7397C22.8962 101.761 27.2441 108.095 32.64 113.399C38.0358 118.703 44.4795 122.977 51.6217 125.889C58.5111 128.695 66.0628 130.235 74 130.235C81.9372 130.235 89.4889 128.684 96.3783 125.889C103.521 122.977 109.964 118.703 115.36 113.399C120.756 108.095 125.104 101.772 128.067 94.7397C130.921 87.9794 132.487 80.5442 132.487 72.7419C132.487 64.9397 130.909 57.5163 128.067 50.7441C125.104 43.7233 120.756 37.3892 115.36 32.0851C109.964 26.781 103.521 22.5069 96.3783 19.5944C89.501 16.7884 81.9372 15.2493 74 15.2493C66.0628 15.2493 58.5111 16.8003 51.6217 19.5944Z" fill="#DA4D4D"/>
</g>
<defs>
<clipPath id="clip0_96_141">
<rect width="148" height="145.484" fill="white"/>
</clipPath>
</defs>
</svg>
