<svg width="144" height="146" viewBox="0 0 144 146" fill="none" xmlns="http://www.w3.org/2000/svg">
<g clip-path="url(#clip0_96_144)">
<path d="M101.063 31.1853C92.9081 26.0028 83.4552 23.1349 73.7471 22.8976C63.3078 22.6095 53.0337 25.5045 44.335 31.1853C41.1107 33.2986 38.1017 35.7132 35.3499 38.3956C26.719 46.5791 21.3204 57.5065 20.1141 69.2345C18.9077 80.9626 21.9719 92.731 28.7617 102.447C30.9165 105.627 33.3855 108.589 36.1328 111.291C42.3249 117.443 50.0489 121.893 58.5352 124.196C67.1155 126.47 76.1482 126.523 84.7555 124.35C93.2521 122.352 101.165 118.454 107.881 112.961C113.953 107.901 118.577 101.372 121.298 94.0176C122.171 91.6396 122.832 89.1914 123.273 86.7008C123.753 84.0867 123.999 81.4364 124.008 78.7801C123.961 77.4712 124.184 76.1664 124.661 74.9437C125.139 73.721 125.862 72.6053 126.787 71.6632C127.713 70.721 128.822 69.9718 130.049 69.46C131.275 68.9483 132.594 68.6846 133.926 68.6846C135.259 68.6846 136.577 68.9483 137.804 69.46C139.03 69.9718 140.14 70.721 141.065 71.6632C141.991 72.6053 142.714 73.721 143.191 74.9437C143.669 76.1664 143.891 77.4712 143.845 78.7801C143.856 82.5614 143.534 86.3366 142.881 90.0632C140.168 104.798 132.35 118.155 120.756 127.867C111.705 135.334 101.021 140.642 89.5371 143.376C77.6293 146.356 65.1397 146.254 53.2839 143.08C41.4293 139.884 30.6329 133.692 21.9688 125.12C18.3405 121.548 15.0733 117.638 12.2129 113.446C2.8493 99.963 -1.37379 83.6643 0.287465 67.4208C1.94872 51.1773 9.38775 36.0311 21.2943 24.6499C24.9502 21.0824 28.9518 17.8744 33.2422 15.0717C45.3187 7.12389 59.6039 3.04976 74.1325 3.40981C88.1144 3.74478 101.703 8.02741 113.276 15.7466L112.71 10.8805C112.562 9.60406 112.672 8.31145 113.032 7.0765C113.392 5.84156 113.997 4.68847 114.81 3.68307C115.624 2.67766 116.631 1.83964 117.774 1.21685C118.917 0.594054 120.174 0.198684 121.473 0.0533113C122.771 -0.0920613 124.086 0.015411 125.342 0.369592C126.599 0.723773 127.772 1.31773 128.794 2.11754C129.817 2.91735 130.67 3.90736 131.303 5.03104C131.937 6.15473 132.339 7.39007 132.487 8.66655L135.667 35.6251C135.938 38.0799 135.253 40.5445 133.748 42.522C132.244 44.4995 130.033 45.8426 127.561 46.2807L99.4014 51.2769C98.1194 51.5024 96.8049 51.4774 95.5327 51.2035C94.2606 50.9295 93.0558 50.4119 91.9872 49.6803C90.9185 48.9486 90.0069 48.0172 89.3045 46.9393C88.602 45.8613 88.1224 44.6579 87.8931 43.3977C87.6637 42.1376 87.6891 40.8454 87.9678 39.5949C88.2465 38.3444 88.773 37.1601 89.5174 36.1096C90.2617 35.0591 91.2092 34.163 92.3058 33.4725C93.4024 32.782 94.6266 32.3105 95.9085 32.0851L101.063 31.1853Z" fill="#DA4D4D"/>
</g>
<defs>
<clipPath id="clip0_96_144">
<rect width="143.809" height="145.484" fill="white"/>
</clipPath>
</defs>
</svg>
